PathFileType	4	(X/Y/Z)	C:/Users/beibeiliu/ov580/test_trc\sequence.3_training_dense_left.trc
DataRate	CameraRate	NumFrames	NumMarkers	Units	OrigDataRate	OrigDataStartFrame	OrigNumFrames
120	120	21	19	mm	120	40	319
Frame#	Time	ThumbCMC			ThumbMCP			ThumbIP			ThumbTip			IndexMCP			IndexPIP			IndexTip			MiddleMCP			MiddlePIP			MiddleTip			RingMCP			RingPIP			RingTip			PinkyMCP			PinkyPIP			PinkyTip			BackHand1			BackHand2			BackHand3	
		X0	Y0	Z0	X1	Y1	Z1	X2	Y2	Z2	X3	Y3	Z3	X4	Y4	Z4	X5	Y5	Z5	X6	Y6	Z6	X7	Y7	Z7	X8	Y8	Z8	X9	Y9	Z9	X10	Y10	Z10	X11	Y11	Z11	X12	Y12	Z12	X13	Y13	Z13	X14	Y14	Z14	X15	Y15	Z15	X16	Y16	Z16	X17	Y17	Z17	X18	Y18	Z18	
39	0.325	-216.144	-9.6883	1.25333	-225.393	10.9682	-20.6479	-206.266	23.9672	-39.2918	-177.867	28.3046	-34.9983	-207.207	17.1435	-61.5764	-212.182	39.3548	-53.6486	-214.42	20.3683	-27.4482	-190.201	25.7218	-57.3637	-195.666	49.7588	-40.9597	-195.402	40.7812	-13.2764	-179.272	28.0277	-44.4244	-185.963	42.2276	-21.782	-184.522	18.957	-3.6171	-164.358	30.8091	-32.218	-174.376	36.8125	-11.7872	-176.581	11.9418	-1.84042	-171.573	-18.3281	-23.0743	-170.312	-27.3829	1.68643	-198.423	-27.71	-11.8487	
40	0.333333	-224.877	-7.62489	-0.661937	-227.614	11.5476	-25.2585	-211.361	22.5486	-43.3513	-185.791	30.3973	-47.3922	-208.901	13.3337	-64.0845	-215.631	36.1128	-55.2344	-215.352	21.7791	-30.1452	-194.086	21.7982	-59.5096	-199.078	47.5776	-47.7296	-204.516	38.6136	-17.0167	-180.201	28.2166	-42.8939	-190.381	39.4948	-20.2581	-190.363	11.816	-6.46048	-168.278	25.998	-35.3541	-176.5	36.4514	-13.9056	-183.244	12.5543	-2.93357	-170.704	-16.6337	-25.4736	-174.254	-27.4679	2.55416	-198.365	-28.4267	-12.3787	
41	0.341667	-227.552	-7.4251	-0.158415	-230.03	13.0046	-23.2099	-212.133	22.8936	-47.3204	-189.05	25.8927	-52.2407	-216.299	6.3671	-63.3999	-219.551	32.4805	-60.6198	-218.081	21.3479	-32.639	-198.073	17.8007	-63.1698	-203.745	44.7211	-53.2555	-202.306	39.5367	-20.7025	-182.936	25.1566	-44.4643	-195.588	35.1732	-22.0495	-195.196	9.83114	-8.98845	-169.128	26.8603	-36.7964	-181.157	33.8261	-15.7991	-182.743	8.47865	-3.12815	-176.506	-18.7585	-24.1289	-180.158	-27.0573	2.91118	-204.191	-28.8044	-9.70835	
42	0.35	-226.739	-5.60727	-2.42	-234.093	13.787	-27.6472	-212.239	18.1598	-46.3447	-193.85	23.2055	-53.6012	-222.729	1.40214	-64.746	-223.975	29.4884	-59.6635	-222.991	15.0035	-32.8405	-202.922	14.6951	-65.5732	-205.359	41.8653	-57.4008	-209.908	38.163	-23.6771	-186.799	22.0872	-46.1567	-193.902	33.6342	-21.5319	-195.973	8.23829	-10.4546	-172.543	24.1221	-39.0764	-184.827	32.1864	-18.6173	-187.947	9.05972	-6.30038	-179.93	-20.8306	-22.1118	-180.645	-26.2151	4.59779	-205.417	-28.5104	-8.76524	
43	0.358333	-229.59	-6.0156	-0.934341	-232.961	10.2129	-27.7407	-219.409	17.0139	-46.7602	-194.193	21.2047	-58.4445	-220.378	-0.641475	-66.4663	-228.032	25.1318	-66.249	-225.219	18.7718	-36.0052	-203.164	7.26677	-65.4948	-211.47	38.6224	-60.8789	-209.718	38.5659	-30.4831	-191.591	21.5594	-49.1177	-197.701	33.3093	-28.3089	-194.764	8.01178	-11.2173	-178.813	21.6829	-42.5951	-186.434	31.4521	-22.6926	-190.199	11.4655	-8.12086	-183.207	-22.3428	-25.1772	-178.652	-26.4906	4.41982	-208.551	-29.4002	-7.50471	
44	0.366667	-227.368	-6.96684	1.16946	-237.522	9.5337	-29.5778	-220.812	13.0852	-53.9493	-198.728	14.9023	-58.7793	-225.493	-7.57491	-65.1815	-228.352	19.133	-70.9199	-226.509	16.887	-38.559	-208.755	0.675426	-65.8947	-211.167	30.8755	-67.5547	-213.524	36.5359	-33.9606	-192.781	18.7817	-51.7937	-199.978	31.652	-32.3015	-196.947	7.63967	-13.1371	-178.234	14.6619	-45.3161	-188.611	29.2269	-24.5425	-193.289	6.30217	-11.355	-184.183	-23.5926	-22.464	-185.627	-27.2514	4.42185	-211.395	-31.8424	-9.87874	
45	0.375	-230.843	-7.35691	-0.821589	-237.327	5.39087	-31.6165	-223.037	9.08239	-49.1423	-205.227	12.6223	-61.4387	-227.129	-13.207	-66.0271	-231.81	13.4831	-72.7292	-231.736	18.9803	-43.6947	-210.777	-1.7884	-68.8237	-212.14	28.6313	-67.1734	-215.378	34.5392	-38.0851	-197.861	10.9165	-54.7363	-203.647	28.4212	-36.9239	-200.094	5.28396	-15.2991	-181.3	15.9177	-47.876	-189.283	28.7106	-29.6309	-194.681	10.8646	-12.5775	-181.806	-24.6893	-20.9389	-185.936	-28.4191	7.95403	-210.857	-31.4415	-5.85359	
46	0.383333	-233.785	-9.24765	-2.69771	-240.761	4.20409	-32.2043	-225.43	4.90035	-51.9355	-201.909	5.8885	-61.9409	-228.656	-19.1198	-64.508	-231.319	6.19811	-76.7638	-230.338	18.4664	-47.5708	-213.871	-8.41539	-69.615	-217.992	23.4133	-70.9599	-217.431	31.2773	-42.2158	-193.642	7.66341	-56.5019	-206.726	25.9929	-39.6412	-200.907	8.86628	-16.6698	-182.881	12.7081	-50.7937	-193.135	26.4456	-37.6988	-195.125	11.3647	-16.8115	-187.141	-27.3227	-21.3538	-185.287	-25.7917	8.80361	-212.916	-31.7729	-4.76502	
47	0.391667	-234.847	-5.92354	-1.03712	-236.706	2.60723	-30.8047	-226.871	2.24599	-57.1218	-206.669	3.68934	-68.8754	-230.811	-22.1811	-65.6507	-235.374	0.212756	-75.6183	-235.959	13.2614	-46.2383	-213.328	-15.3582	-66.8484	-215.945	15.5593	-75.6819	-219.747	28.8091	-45.9648	-197.65	5.87918	-58.5466	-206.999	22.5373	-42.9268	-202.394	6.40154	-18.0983	-184.156	4.08087	-51.5816	-192.944	23.3424	-39.0041	-195.485	8.04167	-17.8417	-187.276	-26.4901	-17.0963	-188.612	-27.6029	7.50987	-214.141	-32.8338	-2.21344	
48	0.4	-232.863	-2.91818	2.69598	-236.961	3.66055	-29.4598	-229.828	0.0112836	-56.4706	-206.625	-4.02442	-66.241	-234.044	-26.4878	-61.0496	-234.96	-1.51681	-73.3114	-233.815	8.2732	-44.1621	-214.519	-20.1674	-65.7617	-221.403	9.25858	-76.8177	-221.53	25.0754	-48.3815	-200.991	-4.11994	-57.1832	-203.364	20.5772	-44.1555	-205.874	1.37256	-21.2689	-183.895	1.86653	-54.6826	-194.664	19.4946	-40.947	-196.873	9.54912	-20.8286	-187.421	-29.9466	-15.4208	-187.742	-26.2188	7.65933	-211.233	-31.1811	1.25584	
49	0.408333	-235.261	-0.318801	-0.123977	-236.842	3.74976	-28.7782	-229.819	-2.62417	-52.8435	-210.201	-9.30775	-68.9434	-237.152	-26.8279	-59.9939	-238.488	-1.97079	-69.0535	-236.089	5.25294	-42.0184	-219.615	-24.4395	-65.3111	-220.101	2.60669	-77.9684	-214.868	22.8985	-50.4435	-200.557	-7.50595	-59.8297	-205.559	16.3978	-46.5676	-202.264	4.12017	-21.719	-186.779	-9.99704	-51.74	-194.943	13.6892	-46.7956	-194.466	8.05207	-19.2171	-191.826	-33.6186	-15.547	-191.228	-24.4974	11.1963	-215.534	-29.5416	2.8169	
50	0.416667	-230.926	6.06528	4.8793	-236.743	6.0434	-29.2938	-230.097	-1.8069	-50.8413	-214.556	-11.1181	-70.2014	-242.459	-25.9907	-51.185	-236.814	-2.70581	-68.1292	-235.996	7.33021	-40.9881	-222.317	-26.0144	-61.541	-221.317	-0.216386	-77.5901	-213.887	20.7934	-55.7429	-203.666	-13.2519	-57.426	-201.986	14.2232	-47.5733	-201.926	0.847241	-21.4775	-187.746	-10.3517	-54.0154	-189.85	11.8369	-48.1875	-195.753	7.1501	-22.7839	-194.046	-33.6869	-11.1077	-188.965	-27.0114	12.3987	-216.554	-28.0763	5.64507	
51	0.425	-229.524	9.87212	6.02037	-238.012	11.8825	-28.2852	-230.49	-0.822882	-48.8491	-215.054	-14.658	-68.0317	-244.613	-24.1952	-50.5232	-241.127	-1.86203	-65.1967	-233.463	6.9121	-36.5132	-227.434	-26.0638	-58.1571	-227.802	-3.48003	-76.3492	-213.265	20.9535	-51.2102	-208.948	-13.7645	-55.9619	-206.009	12.0803	-47.7873	-200.503	3.34031	-23.0007	-187.771	-16.3647	-52.7066	-192.46	9.16986	-45.6262	-196.657	1.58651	-23.0518	-199.232	-33.9018	-10.4548	-188.713	-25.8237	13.7977	-221.076	-25.9169	8.4189	
52	0.433333	-227.031	8.73155	5.92218	-236.028	13.3173	-23.4417	-234.798	-3.28478	-51.1742	-219.478	-15.0486	-64.2837	-246.907	-21.5565	-46.8405	-242.427	-0.35831	-63.7693	-232.866	8.20123	-35.8021	-231.943	-24.5274	-60.0313	-230.574	-1.42859	-74.624	-218.181	21.0697	-52.2645	-207.614	-16.0551	-54.3335	-206.289	10.7917	-48.1784	-202.092	1.62406	-21.2256	-192.318	-17.2843	-52.1782	-193.515	6.98877	-44.7754	-193.707	0.654484	-17.9743	-203.446	-33.2959	-10.4019	-189.891	-27.007	17.1444	-224.019	-23.7243	8.73869	
53	0.441667	-226.841	15.2214	8.41937	-239.036	14.0158	-25.4356	-237.543	0.545087	-48.9102	-224.564	-12.5959	-60.6089	-252.436	-16.4705	-43.4004	-246.108	5.2527	-60.5699	-236.42	14.5534	-35.7627	-241.275	-19.3164	-55.8285	-231.848	3.95725	-72.2643	-215.773	21.1453	-51.0607	-217.59	-12.5203	-53.3175	-206.612	9.70822	-48.6259	-205.695	5.40127	-21.7089	-201.042	-19.0632	-50.6776	-197.984	5.50994	-45.8122	-197.411	2.47571	-20.4542	-204.748	-35.1626	-5.74024	-195.745	-27.0744	16.5491	-227.909	-19.7936	10.9006	
54	0.45	-228.735	15.9982	6.90119	-237.556	19.036	-21.7994	-239.444	5.0573	-45.8055	-228.553	-9.83826	-58.6611	-256.791	-10.7575	-41.7706	-246.954	11.9393	-57.6636	-236.394	17.5237	-33.1546	-242.395	-18.5994	-53.4119	-234.796	7.26661	-69.4057	-217.111	23.7863	-49.2041	-217.763	-13.607	-52.2876	-205.12	10.5816	-45.8252	-206.857	4.20237	-20.6716	-205.115	-17.0032	-51.8099	-198.953	4.75016	-45.667	-200.155	-0.395868	-20.977	-211.327	-34.4996	-6.64206	-195.927	-25.6278	15.9215	-228.106	-14.6654	12.403	
55	0.458333	-224.544	18.4172	7.87651	-238.189	22.5497	-22.8815	-238.961	8.25556	-42.1728	-233.992	-7.57071	-61.8063	-259.705	-5.38895	-37.3171	-250.032	14.1409	-55.7083	-236.138	19.7453	-30.7252	-249.704	-12.0006	-49.7138	-239.618	11.4626	-68.4258	-216.636	23.402	-52.8326	-226.409	-11.4726	-49.0001	-207.616	12.4069	-44.1305	-207.408	4.75809	-19.7299	-209.893	-18.6378	-51.3493	-202.805	3.86872	-47.1336	-199.182	-3.28365	-18.5453	-217.842	-29.5916	-4.73625	-204.031	-24.3987	16.3897	-228.489	-12.8065	16.8831	
56	0.466667	-225.934	22.0368	8.69336	-238.315	28.3879	-21.1783	-243.912	15.4023	-43.2203	-239.455	-0.290191	-60.109	-265.787	3.8135	-35.9893	-255.148	21.8053	-53.1176	-238.152	27.2504	-30.8599	-255.052	-5.37735	-49.218	-240.175	14.9152	-66.739	-215.64	24.7166	-48.9685	-230.211	-8.23609	-47.9183	-209.939	12.8714	-44.0519	-211.35	5.16798	-17.8011	-217.654	-18.1242	-47.2478	-205.991	3.97707	-48.0011	-200.925	-1.16379	-20.1356	-223.487	-31.2845	-7.81395	-204.268	-26.7037	17.8881	-233.056	-7.54081	14.5658	
57	0.475	-221.034	23.4145	11.6536	-235.346	31.0982	-16.5709	-243.145	15.9473	-38.8571	-241.928	2.14678	-54.4812	-268.562	11.5057	-34.9975	-255.61	24.9312	-52.2493	-237.56	29.8286	-29.8623	-258.578	-0.951243	-47.0695	-246.723	16.4598	-65.5403	-217.405	27.1131	-47.4289	-234.16	-1.41362	-49.9448	-214.798	16.063	-44.8633	-211.144	8.73678	-20.5013	-221.902	-16.0059	-48.4861	-205.009	4.47674	-46.2309	-201.232	1.50302	-20.7211	-225.775	-27.4097	-6.06125	-211.735	-23.373	18.1817	-232.881	-6.8779	17.4246	
58	0.483333	-221.418	28.544	13.5643	-235.113	33.6015	-15.8014	-244.483	24.0489	-35.8397	-246.768	5.25618	-53.9034	-269.73	15.3158	-29.5181	-260.476	29.2517	-51.6045	-234.694	35.2078	-32.1377	-260.57	3.37829	-42.637	-244.834	23.8648	-62.7524	-218.844	30.8843	-46.1368	-238.482	-1.69224	-46.8889	-215.861	15.8792	-44.8075	-211.77	10.4872	-20.652	-226.395	-13.6322	-48.653	-211.203	5.79528	-46.968	-205.431	1.08332	-19.4817	-234.283	-21.9303	-4.4472	-212.418	-23.7908	17.5309	-235.721	-5.03302	17.434	
59	0.491667	-219.409	30.6835	14.5299	-234.88	36.9471	-14.565	-245.211	26.3357	-34.2726	-247.354	7.22741	-50.0151	-271.711	24.8817	-30.9903	-258.432	40.2094	-49.7923	-233.86	41.6612	-41.2202	-263.206	8.99087	-44.1185	-249.616	26.5175	-61.4891	-219.549	28.7927	-47.4932	-240.183	2.96548	-48.0576	-218.485	18.8208	-42.9357	-213.088	8.14555	-16.7783	-230.127	-12.8612	-45.5759	-210.43	6.12818	-44.0881	-208.601	2.5596	-22.1808	-232.558	-24.0706	-2.59404	-215.783	-24.7437	17.4408	-237.777	0.988367	20.3321	
